# xmcd
#
# Track frame offsets:
#	150
#	8654
#	24940
#	42059
#	59579
#	72276
#	91922
#	106306
#	125092
#	140032
#	157889
#	174800
#	199456
#	219956
#	235388
#	249423
#	261665
#	270328
#	285948
#	305091
#	322531
#	341141
#
# Disc length: 4784 seconds
#
# Revision: 0
# Processed by: cddbd v1.5.2PL0 Copyright (c) Steve Scherf et al.
# Submitted via: dBpowerAMP V4.0
#
DISCID=3512ae16
DTITLE=Country - Mix
DYEAR=2006
DGENRE=Country
TTITLE0=1
TTITLE1=2
TTITLE2=3
TTITLE3=d
TTITLE4=e
TTITLE5=f
TTITLE6=g
TTITLE7=h
TTITLE8=i
TTITLE9=j
TTITLE10=k
TTITLE11=l
TTITLE12=m
TTITLE13=n
TTITLE14=0
TTITLE15=p
TTITLE16=q
TTITLE17=r
TTITLE18=s
TTITLE19=t
TTITLE20=u
TTITLE21=v
EXTD=Nikki \n
EXTT0=
EXTT1=
EXTT2=
EXTT3=
EXTT4=
EXTT5=
EXTT6=
EXTT7=
EXTT8=
EXTT9=
EXTT10=
EXTT11=
EXTT12=
EXTT13=
EXTT14=
EXTT15=
EXTT16=
EXTT17=
EXTT18=
EXTT19=
EXTT20=
EXTT21=
PLAYORDER=
